#!OML:ASF E:\Mandelcareful walks\Project 1\Capture day 1\Session 1\Subject1.ASF
:FULLY-SPECIFIED
:DEGREES
1045
root -9.80088 14.3415 -1.93865 -157.54 -17.1784 166.627
lowerback 31.9855 -2.04895 4.76942
upperback 6.44874 -2.56196 -0.414987
thorax -9.52555 -1.88007 -1.95778
lowerneck -28.8755 -2.72697 -5.61784
upperneck 7.02541 -1.48754 -6.8574
head 6.6638 -1.94347 -1.67095
rclavicle -1.59028e-014 -2.8625e-014
rhumerus -15.4901 1.83948 -71.02
rradius 71.1403
rwrist -19.0124
rhand -19.0831 -21.7935
rfingers 7.12502
rthumb 7.22495 -51.6501
lclavicle -1.59028e-014 -2.8625e-014
lhumerus -14.3268 -30.2522 76.9956
lradius 74.4437
lwrist 20.777
lhand -23.1941 -18.2647
lfingers 7.12502
lthumb 3.25563 11.6902
rfemur -66.8263 -13.3627 13.6293
rtibia 74.0107
rfoot -24.1234 -6.91947
rtoes 7.22287
lfemur -58.1743 31.32 -27.767
ltibia 80.2515
lfoot -13.7323 6.66767
ltoes -24.4326
1046
root -9.86848 14.3335 -2.00181 -157.686 -16.8299 166.353
lowerback 32.1936 -1.70837 4.29213
upperback 6.57773 -2.32283 -0.521863
thorax -9.44715 -1.76947 -1.89965
lowerneck -29.1559 -3.09958 -5.83423
upperneck 7.09931 -1.92818 -6.51746
head 6.72294 -2.13451 -1.5911
rclavicle -1.74931e-014 9.54166e-015
rhumerus -14.9061 1.7558 -71.0463
rradius 71.0316
rwrist -19.0448
rhand -19.7334 -22.0027
rfingers 7.12502
rthumb 6.59716 -51.88
lclavicle -1.74931e-014 9.54166e-015
lhumerus -14.1729 -30.0086 76.8013
lradius 74.7747
lwrist 21.0539
lhand -23.2884 -18.3838
lfingers 7.12502
lthumb 3.16462 11.5725
rfemur -66.3009 -13.1962 12.8314
rtibia 74.3043
rfoot -24.4734 -6.84158
rtoes 6.5671
lfemur -57.4097 31.1493 -26.2793
ltibia 76.1452
lfoot -13.4231 7.80777
ltoes -25.4887
1047
root -9.9638 14.3265 -2.04406 -157.565 -16.9005 165.923
lowerback 32.1641 -1.77383 4.29106
upperback 6.55835 -2.42049 -0.733233
thorax -9.47486 -1.81116 -2.08762
lowerneck -29.0169 -3.40903 -6.05178
upperneck 7.03988 -2.31973 -6.16799
head 6.68093 -2.28465 -1.4884
rclavicle -4.77083e-015 -1.59028e-015
rhumerus -14.4972 1.72993 -71.2357
rradius 70.8289
rwrist -18.9253
rhand -19.842 -22.0166
rfingers 7.12502
rthumb 6.49231 -51.8971
lclavicle -4.77083e-015 -1.59028e-015
lhumerus -14.4364 -29.6178 76.7434
lradius 75.2001
lwrist 21.2943
lhand -23.3682 -18.3612
lfingers 7.12502
lthumb 3.08751 11.5962
rfemur -66.0629 -13.6724 12.0443
rtibia 74.5655
rfoot -24.6637 -6.9299
rtoes 4.88993
lfemur -56.6949 29.9362 -24.8055
ltibia 71.8156
lfoot -12.6166 8.48466
ltoes -26.3853
1048
root -10.0442 14.334 -2.0937 -157.69 -17.0213 165.624
lowerback 32.3724 -1.79158 4.23192
upperback 6.56015 -2.47837 -0.889175
thorax -9.56687 -1.84055 -2.19223
lowerneck -28.7626 -3.67465 -6.29051
upperneck 6.94923 -2.65972 -5.71375
head 6.61565 -2.39335 -1.33632
rclavicle 2.54444e-014 4.13472e-014
rhumerus -14.1441 1.75695 -71.3611
rradius 70.6256
rwrist -18.9251
rhand -19.2711 -21.5087
rfingers 7.12502
rthumb 7.0435 -51.3715
lclavicle 2.54444e-014 4.13472e-014
lhumerus -14.6575 -29.2877 76.6695
lradius 75.5197
lwrist 21.3302
lhand -23.3827 -18.3494
lfingers 7.12502
lthumb 3.07352 11.6082
rfemur -65.5363 -14.0782 11.4787
rtibia 74.7215
rfoot -24.8511 -7.31642
rtoes 2.69011
lfemur -55.3091 28.5767 -22.7846
ltibia 67.1566
lfoot -11.265 8.48065
ltoes -24.6396
1049
root -10.1378 14.337 -2.13352 -157.687 -17.0994 165.478
lowerback 32.3681 -1.83639 4.24027
upperback 6.60327 -2.55455 -1.01536
thorax -9.5301 -1.87752 -2.30275
lowerneck -28.7759 -3.86895 -6.43861
upperneck 6.89983 -2.918 -5.21355
head 6.60391 -2.46228 -1.17924
rclavicle 1.11319e-014 0
rhumerus -13.5518 1.7483 -71.4509
rradius 70.3148
rwrist -18.8175
rhand -19.63 -21.0278
rfingers 7.12502
rthumb 6.697 -50.9019
lclavicle 1.11319e-014 0
lhumerus -14.7351 -28.959 76.4922
lradius 75.7708
lwrist 21.2349
lhand -23.7347 -18.4649
lfingers 7.12502
lthumb 2.73361 11.4973
rfemur -65.2566 -14.4438 11.0454
rtibia 74.8559
rfoot -25.0183 -7.53016
rtoes 0.824451
lfemur -54.0046 26.9511 -20.66
ltibia 62.5076
lfoot -9.28681 8.60056
ltoes -23.6124
1050
root -10.2051 14.3454 -2.18644 -158.171 -16.496 165.832
lowerback 32.9709 -1.34059 3.58661
upperback 6.61836 -2.14686 -0.909287
thorax -9.70567 -1.69224 -1.97368
lowerneck -28.7162 -4.06631 -6.62686
upperneck 6.74994 -3.18215 -4.75991
head 6.55029 -2.54036 -1.02947
rclavicle 3.49861e-014 -3.97569e-014
rhumerus -12.7224 0.961255 -71.7002
rradius 69.5564
rwrist -17.8783
rhand -19.9404 -20.2955
rfingers 7.12502
rthumb 6.39732 -50.1789
lclavicle 3.49861e-014 -3.97569e-014
lhumerus -14.9119 -28.6159 76.4651
lradius 76.0212
lwrist 21.2376
lhand -23.907 -18.6442
lfingers 7.12502
lthumb 2.5672 11.3201
rfemur -64.5441 -13.6087 10.8107
rtibia 74.8983
rfoot -25.3322 -7.90391
rtoes -0.174048
lfemur -51.9309 26.0641 -17.8349
ltibia 57.8642
lfoot -6.82277 8.85676
ltoes -24.0899
1051
root -10.341 14.3385 -2.20268 -157.813 -17.2503 165.64
lowerback 32.6507 -1.79167 4.26424
upperback 6.49507 -2.45166 -0.889879
thorax -9.74768 -1.83061 -2.20943
lowerneck -28.4241 -4.2875 -7.05197
upperneck 6.43143 -3.43704 -4.32857
head 6.40034 -2.62176 -0.853943
rclavicle 2.54444e-014 -2.06736e-014
rhumerus -12.6379 1.53047 -71.2362
rradius 69.7903
rwrist -18.0506
rhand -20.2303 -20.1678
rfingers 7.12502
rthumb 6.11748 -50.0595
lclavicle 2.54444e-014 -2.06736e-014
lhumerus -15.2601 -28.2843 76.7378
lradius 76.2557
lwrist 21.2293
lhand -23.7032 -18.8532
lfingers 7.12502
lthumb 2.76398 11.1086
rfemur -64.5011 -14.7207 10.3921
rtibia 75.073
rfoot -25.4241 -7.67848
rtoes -0.174655
lfemur -51.0772 23.0552 -15.5751
ltibia 53.6129
lfoot -4.39311 9.81794
ltoes -23.5921
1052
root -10.4429 14.316 -2.24102 -158.057 -16.572 165.625
lowerback 33.0152 -1.31885 3.4915
upperback 6.51294 -2.1251 -0.90237
thorax -9.83733 -1.67406 -1.92139
lowerneck -28.3561 -4.43053 -7.25835
upperneck 6.17449 -3.62671 -3.99179
head 6.31214 -2.68053 -0.72881
rclavicle 2.8625e-014 1.59028e-015
rhumerus -12.4031 1.7316 -71.0316
rradius 69.9077
rwrist -18.0439
rhand -20.3235 -20.147
rfingers 7.12502
rthumb 6.02754 -50.0412
lclavicle 2.8625e-014 1.59028e-015
lhumerus -15.5476 -28.0728 76.829
lradius 76.5137
lwrist 21.0038
lhand -23.4989 -19.0129
lfingers 7.12502
lthumb 2.96134 10.9462
rfemur -64.1695 -14.1552 9.6039
rtibia 75.293
rfoot -25.629 -7.51683
rtoes 0.597976
lfemur -49.2102 21.8644 -13.3807
ltibia 49.6025
lfoot -2.34747 10.3584
ltoes -22.7649
1053
root -10.5673 14.2951 -2.25978 -157.874 -16.2848 165.534
lowerback 32.7735 -1.17356 3.32843
upperback 6.54703 -2.02464 -1.14847
thorax -9.7087 -1.61983 -2.14114
lowerneck -28.4113 -4.55027 -7.24737
upperneck 6.01471 -3.83796 -3.55845
head 6.27315 -2.7314 -0.610804
rclavicle -3.97569e-014 -5.40694e-014
rhumerus -12.1347 1.7162 -71.0695
rradius 69.9632
rwrist -17.9714
rhand -20.4346 -20.4868
rfingers 7.12502
rthumb 5.92022 -50.3841
lclavicle -3.97569e-014 -5.40694e-014
lhumerus -15.7314 -28.0634 76.6283
lradius 76.8231
lwrist 20.7601
lhand -23.1192 -19.0607
lfingers 7.12502
lthumb 3.32796 10.8931
rfemur -64.2143 -14.1782 8.93541
rtibia 75.4453
rfoot -25.736 -7.28134
rtoes 1.20174
lfemur -48.1476 20.314 -11.5748
ltibia 46.0039
lfoot -0.142565 11.1155
ltoes -22.7756
1054
root -10.7171 14.318 -2.26573 -157.719 -16.5143 165.34
lowerback 32.6682 -1.43852 3.80459
upperback 6.4961 -2.21543 -1.4199
thorax -9.75852 -1.71159 -2.6151
lowerneck -28.2003 -4.62155 -7.33033
upperneck 5.76707 -3.97746 -3.11863
head 6.17015 -2.74447 -0.459354
rclavicle 4.29375e-014 6.36111e-015
rhumerus -11.9251 1.77862 -70.9473
rradius 69.9882
rwrist -17.9721
rhand -20.3953 -21.0837
rfingers 7.12502
rthumb 5.95813 -50.9799
lclavicle 4.29375e-014 6.36111e-015
lhumerus -16.1282 -28.0922 76.6524
lradius 77.1165
lwrist 20.5001
lhand -22.9327 -18.9997
lfingers 7.12502
lthumb 3.50812 10.9512
rfemur -64.1378 -15.1837 8.42096
rtibia 75.5074
rfoot -25.6116 -7.0372
rtoes -0.213274
lfemur -47.1328 17.4099 -9.57954
ltibia 42.7047
lfoot 1.62728 12.7205
ltoes -21.1496
1055
root -10.8442 14.3233 -2.28532 -157.896 -15.8119 165.417
lowerback 32.9904 -1.03026 3.14438
upperback 6.43016 -1.91906 -1.42868
thorax -9.92813 -1.56661 -2.3727
lowerneck -28.2053 -4.60753 -7.36684
upperneck 5.75748 -3.95026 -3.08579
head 6.16839 -2.72916 -0.439315
rclavicle 4.77083e-014 -1.43125e-014
rhumerus -11.6884 1.83894 -70.6475
rradius 69.9997
rwrist -17.9713
rhand -20.1649 -21.2413
rfingers 7.12502
rthumb 6.18061 -51.1311
lclavicle 4.77083e-014 -1.43125e-014
lhumerus -16.6195 -28.0696 76.9249
lradius 77.3324
lwrist 20.3614
lhand -23.1152 -19.009
lfingers 7.12502
lthumb 3.33186 10.9447
rfemur -63.8734 -14.898 7.76867
rtibia 75.4614
rfoot -25.6229 -6.86379
rtoes -1.14718
lfemur -45.6123 15.3746 -7.4013
ltibia 39.9609
lfoot 2.56134 14.1858
ltoes -18.1989
